# xmcd
#
# Track frame offsets: 
#        150
#        16261
#        33454
#        45717
#        64056
#        86162
#        106385
#        123848
#        139885
#        155722
#        171627
#        187957
#        201199
#        221657
#        232382
#        255934
#        268665
#        289659
#        307264
#        320289
#
# Disc length: 4475 seconds
#
# Revision: 1
# Processed by: cddbd v1.5.2PL0 Copyright (c) Steve Scherf et al.
# Submitted via: ExactAudioCopyFreeDBPlugin 1.0
#
DISCID=31117914
DTITLE=Ella Fitzgerald - Love Songs
DYEAR=2005
DGENRE=Jazz
TTITLE0=Every Time We Say Goodbye
TTITLE1=Cheek To Cheek
TTITLE2=I've Got You Under My Skin
TTITLE3=Let's Fall Iin Love
TTITLE4=Summer Time
TTITLE5=The Way You Look Tonight
TTITLE6=The Man I Love
TTITLE7=Lets Do It
TTITLE8=Georgia On My Mind
TTITLE9=Get Happy
TTITLE10=A Fine Romance
TTITLE11=Let's Face The Music And Dance
TTITLE12=Someone To Watch Over Me
TTITLE13=You Do Something To Me
TTITLE14=Stormy Weather
TTITLE15=Manhatten
TTITLE16=They Can't Take That Away From Me
TTITLE17=My Funny Valentine
TTITLE18=Misty
TTITLE19=The Lady Is A Tramp
EXTD=YEAR: 1995
EXTT0=
EXTT1=
EXTT2=
EXTT3=
EXTT4=
EXTT5=
EXTT6=
EXTT7=
EXTT8=
EXTT9=
EXTT10=
EXTT11=
EXTT12=
EXTT13=
EXTT14=
EXTT15=
EXTT16=
EXTT17=
EXTT18=
EXTT19=
PLAYORDER=
